<svg style="overflow: hidden; position: relative;" xmlns="http://www.w3.org/2000/svg" xmlns:xlink="http://www.w3.org/1999/xlink" width="640" version="1.1" height="480"><path transform="matrix(1,0,0,1,0,0)" fill="none" stroke="#00cccc" d="M190,175L190,105" stroke-width="5"></path><text transform="matrix(1,0,0,1,0,0)" style="text-anchor: middle; font: normal normal normal 10px/normal 18px Fontin-Sans, Arial;" x="180" y="140" text-anchor="middle" font="18px Fontin-Sans, Arial" stroke="none" fill="#00cccc"><tspan dy="3.634615384615385">1</tspan></text><path transform="matrix(1,0,0,1,0,0)" fill="none" stroke="#00cccc" d="M190,275L190,205" stroke-width="5"></path><text transform="matrix(1,0,0,1,0,0)" style="text-anchor: middle; font: normal normal normal 10px/normal 18px Fontin-Sans, Arial;" x="180" y="240" text-anchor="middle" font="18px Fontin-Sans, Arial" stroke="none" fill="#00cccc"><tspan dy="3.634615384615385">1</tspan></text><path transform="matrix(1,0,0,1,0,0)" fill="none" stroke="#00cccc" d="M190,375L190,305" stroke-width="5"></path><text transform="matrix(1,0,0,1,0,0)" style="text-anchor: middle; font: normal normal normal 10px/normal 18px Fontin-Sans, Arial;" x="180" y="340" text-anchor="middle" font="18px Fontin-Sans, Arial" stroke="none" fill="#00cccc"><tspan dy="3.634615384615385">1</tspan></text><path transform="matrix(1,0,0,1,0,0)" fill="none" stroke="#00cccc" d="M290,175L290,105" stroke-width="5"></path><text transform="matrix(1,0,0,1,0,0)" style="text-anchor: middle; font: normal normal normal 10px/normal 18px Fontin-Sans, Arial;" x="280" y="140" text-anchor="middle" font="18px Fontin-Sans, Arial" stroke="none" fill="#00cccc"><tspan dy="3.634615384615385">1</tspan></text><path transform="matrix(1,0,0,1,0,0)" fill="none" stroke="#00cccc" d="M290,275L290,205" stroke-width="5"></path><text transform="matrix(1,0,0,1,0,0)" style="text-anchor: middle; font: normal normal normal 10px/normal 18px Fontin-Sans, Arial;" x="280" y="240" text-anchor="middle" font="18px Fontin-Sans, Arial" stroke="none" fill="#00cccc"><tspan dy="3.634615384615385">1</tspan></text><path transform="matrix(1,0,0,1,0,0)" fill="none" stroke="#00cccc" d="M290,375L290,305" stroke-width="5"></path><text transform="matrix(1,0,0,1,0,0)" style="text-anchor: middle; font: normal normal normal 10px/normal 18px Fontin-Sans, Arial;" x="280" y="340" text-anchor="middle" font="18px Fontin-Sans, Arial" stroke="none" fill="#00cccc"><tspan dy="3.634615384615385">1</tspan></text><path transform="matrix(1,0,0,1,0,0)" fill="none" stroke="#00cccc" d="M390,175L390,105" stroke-width="5"></path><text transform="matrix(1,0,0,1,0,0)" style="text-anchor: middle; font: normal normal normal 10px/normal 18px Fontin-Sans, Arial;" x="380" y="140" text-anchor="middle" font="18px Fontin-Sans, Arial" stroke="none" fill="#00cccc"><tspan dy="3.634615384615385">1</tspan></text><path transform="matrix(1,0,0,1,0,0)" fill="none" stroke="#00cccc" d="M390,275L390,205" stroke-width="5"></path><text transform="matrix(1,0,0,1,0,0)" style="text-anchor: middle; font: normal normal normal 10px/normal 18px Fontin-Sans, Arial;" x="380" y="240" text-anchor="middle" font="18px Fontin-Sans, Arial" stroke="none" fill="#00cccc"><tspan dy="3.634615384615385">1</tspan></text><path transform="matrix(1,0,0,1,0,0)" fill="none" stroke="#00cccc" d="M390,375L390,305" stroke-width="5"></path><text transform="matrix(1,0,0,1,0,0)" style="text-anchor: middle; font: normal normal normal 10px/normal 18px Fontin-Sans, Arial;" x="380" y="340" text-anchor="middle" font="18px Fontin-Sans, Arial" stroke="none" fill="#00cccc"><tspan dy="3.634615384615385">1</tspan></text><path transform="matrix(1,0,0,1,0,0)" fill="none" stroke="#00cccc" d="M490,175L490,105" stroke-width="5"></path><text transform="matrix(1,0,0,1,0,0)" style="text-anchor: middle; font: normal normal normal 10px/normal 18px Fontin-Sans, Arial;" x="480" y="140" text-anchor="middle" font="18px Fontin-Sans, Arial" stroke="none" fill="#00cccc"><tspan dy="3.634615384615385">1</tspan></text><path transform="matrix(1,0,0,1,0,0)" fill="none" stroke="#00cccc" d="M490,275L490,205" stroke-width="5"></path><text transform="matrix(1,0,0,1,0,0)" style="text-anchor: middle; font: normal normal normal 10px/normal 18px Fontin-Sans, Arial;" x="480" y="240" text-anchor="middle" font="18px Fontin-Sans, Arial" stroke="none" fill="#00cccc"><tspan dy="3.634615384615385">1</tspan></text><path transform="matrix(1,0,0,1,0,0)" fill="none" stroke="#00cccc" d="M490,375L490,305" stroke-width="5"></path><text transform="matrix(1,0,0,1,0,0)" style="text-anchor: middle; font: normal normal normal 10px/normal 18px Fontin-Sans, Arial;" x="480" y="340" text-anchor="middle" font="18px Fontin-Sans, Arial" stroke="none" fill="#00cccc"><tspan dy="3.634615384615385">1</tspan></text><path transform="matrix(1,0,0,1,0,0)" fill="none" stroke="#00cccc" d="M275,90L205,90" stroke-width="5"></path><text transform="matrix(1,0,0,1,0,0)" style="text-anchor: middle; font: normal normal normal 10px/normal 18px Fontin-Sans, Arial;" x="240" y="100" text-anchor="middle" font="18px Fontin-Sans, Arial" stroke="none" fill="#00cccc"><tspan dy="3.634615384615385">1</tspan></text><path transform="matrix(1,0,0,1,0,0)" fill="none" stroke="#00cccc" d="M375,90L305,90" stroke-width="5"></path><text transform="matrix(1,0,0,1,0,0)" style="text-anchor: middle; font: normal normal normal 10px/normal 18px Fontin-Sans, Arial;" x="340" y="100" text-anchor="middle" font="18px Fontin-Sans, Arial" stroke="none" fill="#00cccc"><tspan dy="3.634615384615385">1</tspan></text><path transform="matrix(1,0,0,1,0,0)" fill="none" stroke="#00cccc" d="M475,90L405,90" stroke-width="5"></path><text transform="matrix(1,0,0,1,0,0)" style="text-anchor: middle; font: normal normal normal 10px/normal 18px Fontin-Sans, Arial;" x="440" y="100" text-anchor="middle" font="18px Fontin-Sans, Arial" stroke="none" fill="#00cccc"><tspan dy="3.634615384615385">1</tspan></text><path transform="matrix(1,0,0,1,0,0)" fill="none" stroke="#00cccc" d="M275,190L205,190" stroke-width="5"></path><text transform="matrix(1,0,0,1,0,0)" style="text-anchor: middle; font: normal normal normal 10px/normal 18px Fontin-Sans, Arial;" x="240" y="200" text-anchor="middle" font="18px Fontin-Sans, Arial" stroke="none" fill="#00cccc"><tspan dy="3.634615384615385">1</tspan></text><path transform="matrix(1,0,0,1,0,0)" fill="none" stroke="#00cccc" d="M375,190L305,190" stroke-width="5"></path><text transform="matrix(1,0,0,1,0,0)" style="text-anchor: middle; font: normal normal normal 10px/normal 18px Fontin-Sans, Arial;" x="340" y="200" text-anchor="middle" font="18px Fontin-Sans, Arial" stroke="none" fill="#00cccc"><tspan dy="3.634615384615385">1</tspan></text><path transform="matrix(1,0,0,1,0,0)" fill="none" stroke="#00cccc" d="M475,190L405,190" stroke-width="5"></path><text transform="matrix(1,0,0,1,0,0)" style="text-anchor: middle; font: normal normal normal 10px/normal 18px Fontin-Sans, Arial;" x="440" y="200" text-anchor="middle" font="18px Fontin-Sans, Arial" stroke="none" fill="#00cccc"><tspan dy="3.634615384615385">1</tspan></text><path transform="matrix(1,0,0,1,0,0)" fill="none" stroke="#00cccc" d="M275,290L205,290" stroke-width="5"></path><text transform="matrix(1,0,0,1,0,0)" style="text-anchor: middle; font: normal normal normal 10px/normal 18px Fontin-Sans, Arial;" x="240" y="300" text-anchor="middle" font="18px Fontin-Sans, Arial" stroke="none" fill="#00cccc"><tspan dy="3.634615384615385">1</tspan></text><path transform="matrix(1,0,0,1,0,0)" fill="none" stroke="#00cccc" d="M375,290L305,290" stroke-width="5"></path><text transform="matrix(1,0,0,1,0,0)" style="text-anchor: middle; font: normal normal normal 10px/normal 18px Fontin-Sans, Arial;" x="340" y="300" text-anchor="middle" font="18px Fontin-Sans, Arial" stroke="none" fill="#00cccc"><tspan dy="3.634615384615385">1</tspan></text><path transform="matrix(1,0,0,1,0,0)" fill="none" stroke="#00cccc" d="M475,290L405,290" stroke-width="5"></path><text transform="matrix(1,0,0,1,0,0)" style="text-anchor: middle; font: normal normal normal 10px/normal 18px Fontin-Sans, Arial;" x="440" y="300" text-anchor="middle" font="18px Fontin-Sans, Arial" stroke="none" fill="#00cccc"><tspan dy="3.634615384615385">1</tspan></text><path transform="matrix(1,0,0,1,0,0)" fill="none" stroke="#cc0000" d="M275,390L205,390" stroke-width="5"></path><text transform="matrix(1,0,0,1,0,0)" style="text-anchor: middle; font: normal normal normal 10px/normal 18px Fontin-Sans, Arial;" x="240" y="400" text-anchor="middle" font="18px Fontin-Sans, Arial" stroke="none" fill="#cc0000"><tspan dy="3.634615384615385">0</tspan></text><path transform="matrix(1,0,0,1,0,0)" fill="none" stroke="#cc0000" d="M475,390L405,390" stroke-width="5"></path><text transform="matrix(1,0,0,1,0,0)" style="text-anchor: middle; font: normal normal normal 10px/normal 18px Fontin-Sans, Arial;" x="440" y="400" text-anchor="middle" font="18px Fontin-Sans, Arial" stroke="none" fill="#cc0000"><tspan dy="3.634615384615385">0</tspan></text><circle transform="matrix(1,0,0,1,0,0)" cx="190" cy="90" r="15" fill="#f00" stroke="#000"></circle><circle transform="matrix(1,0,0,1,0,0)" cx="190" cy="190" r="15" fill="#ff0" stroke="#000" fill-opacity="0.3" cursor="hand"></circle><circle transform="matrix(1,0,0,1,0,0)" cx="190" cy="290" r="15" fill="#ff0" stroke="#000" fill-opacity="0.3" cursor="hand"></circle><circle transform="matrix(1,0,0,1,0,0)" cx="190" cy="390" r="15" fill="#ff0" stroke="#000" fill-opacity="0.3" cursor="hand"></circle><circle transform="matrix(1,0,0,1,0,0)" cx="290" cy="90" r="15" fill="#ff0" stroke="#000" fill-opacity="0.3" cursor="hand"></circle><circle transform="matrix(1,0,0,1,0,0)" cx="290" cy="190" r="15" fill="#ff0" stroke="#000" fill-opacity="0.3" cursor="hand"></circle><circle transform="matrix(1,0,0,1,0,0)" cx="290" cy="290" r="15" fill="#ff0" stroke="#000" fill-opacity="0.3" cursor="hand"></circle><circle transform="matrix(1,0,0,1,0,0)" cx="290" cy="390" r="15" fill="#ff0" stroke="#000" fill-opacity="0.3" cursor="hand"></circle><circle transform="matrix(1,0,0,1,0,0)" cx="390" cy="90" r="15" fill="#ff0" stroke="#000" fill-opacity="0.3" cursor="hand"></circle><circle transform="matrix(1,0,0,1,0,0)" cx="390" cy="190" r="15" fill="#ff0" stroke="#000" fill-opacity="0.3" cursor="hand"></circle><circle transform="matrix(1,0,0,1,0,0)" cx="390" cy="290" r="15" fill="#ff0" stroke="#000" fill-opacity="0.3" cursor="hand"></circle><circle transform="matrix(1,0,0,1,0,0)" cx="390" cy="390" r="15" fill="#ff0" stroke="#000" fill-opacity="0.3" cursor="hand"></circle><circle transform="matrix(1,0,0,1,0,0)" cx="490" cy="90" r="15" fill="#f00" stroke="#000"></circle><circle transform="matrix(1,0,0,1,0,0)" cx="490" cy="190" r="15" fill="#ff0" stroke="#000" fill-opacity="0.3" cursor="hand"></circle><circle transform="matrix(1,0,0,1,0,0)" cx="490" cy="290" r="15" fill="#ff0" stroke="#000" fill-opacity="0.3" cursor="hand"></circle><circle transform="matrix(1,0,0,1,0,0)" cx="490" cy="390" r="15" fill="#ff0" stroke="#000" fill-opacity="0.3" cursor="hand"></circle><text transform="matrix(1,0,0,1,0,0)" style="text-anchor: middle; font: normal normal normal 10px/normal 18px Fontin-Sans, Arial;" x="190" y="90" text-anchor="middle" font="18px Fontin-Sans, Arial" stroke="none" fill="#000"><tspan dy="3.634615384615385">s</tspan></text><text transform="matrix(1,0,0,1,0,0)" style="text-anchor: middle; font: normal normal normal 10px/normal 18px Fontin-Sans, Arial;" x="490" y="90" text-anchor="middle" font="18px Fontin-Sans, Arial" stroke="none" fill="#000"><tspan dy="3.634615384615385">t</tspan></text></svg>