<svg style="overflow: hidden; position: relative;" xmlns="http://www.w3.org/2000/svg" xmlns:xlink="http://www.w3.org/1999/xlink" width="640" version="1.1" height="480"><path transform="matrix(1,0,0,1,0,0)" fill="none" stroke="#00cccc" d="M232.48075441506765,208.32050294337844L267.5192455849323,231.67949705662156" stroke-width="5"></path><text transform="matrix(1,0,0,1,0,0)" style="text-anchor: middle; font: normal normal normal 10px/normal 18px Fontin-Sans, Arial;" x="255.5470019622523" y="211.67949705662156" text-anchor="middle" font="18px Fontin-Sans, Arial" stroke="none" fill="#00cccc"><tspan dy="3.634615384615385">1</tspan></text><path transform="matrix(1,0,0,1,0,0)" fill="none" stroke="#00cccc" d="M232.48075441506765,271.6794970566216L267.5192455849323,248.32050294337844" stroke-width="5"></path><text transform="matrix(1,0,0,1,0,0)" style="text-anchor: middle; font: normal normal normal 10px/normal 18px Fontin-Sans, Arial;" x="244.4529980377477" y="251.67949705662156" text-anchor="middle" font="18px Fontin-Sans, Arial" stroke="none" fill="#00cccc"><tspan dy="3.634615384615385">1</tspan></text><path transform="matrix(1,0,0,1,0,0)" fill="none" stroke="#00cccc" d="M160,345L160,255" stroke-width="5"></path><text transform="matrix(1,0,0,1,0,0)" style="text-anchor: middle; font: normal normal normal 10px/normal 18px Fontin-Sans, Arial;" x="150" y="300" text-anchor="middle" font="18px Fontin-Sans, Arial" stroke="none" fill="#00cccc"><tspan dy="3.634615384615385">1</tspan></text><path transform="matrix(1,0,0,1,0,0)" fill="none" stroke="#00cccc" d="M169,132L211,188" stroke-width="5"></path><text transform="matrix(1,0,0,1,0,0)" style="text-anchor: middle; font: normal normal normal 10px/normal 18px Fontin-Sans, Arial;" x="198" y="154" text-anchor="middle" font="18px Fontin-Sans, Arial" stroke="none" fill="#00cccc"><tspan dy="3.634615384615385">1</tspan></text><path transform="matrix(1,0,0,1,0,0)" fill="none" stroke="#00cccc" d="M154.42913985468846,226.07284963672112L85.57086014531156,53.92715036327889" stroke-width="5"></path><text transform="matrix(1,0,0,1,0,0)" style="text-anchor: middle; font: normal normal normal 10px/normal 18px Fontin-Sans, Arial;" x="110.71523309114741" y="143.71390676354105" text-anchor="middle" font="18px Fontin-Sans, Arial" stroke="none" fill="#00cccc"><tspan dy="3.634615384615385">1</tspan></text><path transform="matrix(1,0,0,1,0,0)" fill="none" stroke="#00cccc" d="M480,135L480,225" stroke-width="5"></path><text transform="matrix(1,0,0,1,0,0)" style="text-anchor: middle; font: normal normal normal 10px/normal 18px Fontin-Sans, Arial;" x="490" y="180" text-anchor="middle" font="18px Fontin-Sans, Arial" stroke="none" fill="#00cccc"><tspan dy="3.634615384615385">1</tspan></text><path transform="matrix(1,0,0,1,0,0)" fill="none" stroke="#00cccc" d="M485.57086014531154,253.92715036327888L554.4291398546884,426.0728496367211" stroke-width="5"></path><text transform="matrix(1,0,0,1,0,0)" style="text-anchor: middle; font: normal normal normal 10px/normal 18px Fontin-Sans, Arial;" x="529.2847669088526" y="336.28609323645895" text-anchor="middle" font="18px Fontin-Sans, Arial" stroke="none" fill="#00cccc"><tspan dy="3.634615384615385">1</tspan></text><path transform="matrix(1,0,0,1,0,0)" fill="none" stroke="#00cccc" d="M471,348L429,292" stroke-width="5"></path><text transform="matrix(1,0,0,1,0,0)" style="text-anchor: middle; font: normal normal normal 10px/normal 18px Fontin-Sans, Arial;" x="442" y="326" text-anchor="middle" font="18px Fontin-Sans, Arial" stroke="none" fill="#00cccc"><tspan dy="3.634615384615385">1</tspan></text><path transform="matrix(1,0,0,1,0,0)" fill="none" stroke="#cc0000" d="M407.5192455849323,271.6794970566216L372.4807544150677,248.32050294337844" stroke-width="5"></path><text transform="matrix(1,0,0,1,0,0)" style="text-anchor: middle; font: normal normal normal 10px/normal 18px Fontin-Sans, Arial;" x="384.4529980377477" y="268.3205029433784" text-anchor="middle" font="18px Fontin-Sans, Arial" stroke="none" fill="#cc0000"><tspan dy="3.634615384615385">0</tspan></text><path transform="matrix(1,0,0,1,0,0)" fill="none" stroke="#00cccc" d="M95,40L545,40" stroke-width="5"></path><text transform="matrix(1,0,0,1,0,0)" style="text-anchor: middle; font: normal normal normal 10px/normal 18px Fontin-Sans, Arial;" x="320" y="30" text-anchor="middle" font="18px Fontin-Sans, Arial" stroke="none" fill="#00cccc"><tspan dy="3.634615384615385">1</tspan></text><path transform="matrix(1,0,0,1,0,0)" fill="none" stroke="#00cccc" d="M560,55L560,425" stroke-width="5"></path><text transform="matrix(1,0,0,1,0,0)" style="text-anchor: middle; font: normal normal normal 10px/normal 18px Fontin-Sans, Arial;" x="570" y="240" text-anchor="middle" font="18px Fontin-Sans, Arial" stroke="none" fill="#00cccc"><tspan dy="3.634615384615385">1</tspan></text><path transform="matrix(1,0,0,1,0,0)" fill="none" stroke="#00cccc" d="M545,440L95,440" stroke-width="5"></path><text transform="matrix(1,0,0,1,0,0)" style="text-anchor: middle; font: normal normal normal 10px/normal 18px Fontin-Sans, Arial;" x="320" y="450" text-anchor="middle" font="18px Fontin-Sans, Arial" stroke="none" fill="#00cccc"><tspan dy="3.634615384615385">1</tspan></text><path transform="matrix(1,0,0,1,0,0)" fill="none" stroke="#00cccc" d="M80,55L80,425" stroke-width="5"></path><text transform="matrix(1,0,0,1,0,0)" style="text-anchor: middle; font: normal normal normal 10px/normal 18px Fontin-Sans, Arial;" x="90" y="240" text-anchor="middle" font="18px Fontin-Sans, Arial" stroke="none" fill="#00cccc"><tspan dy="3.634615384615385">1</tspan></text><path transform="matrix(1,0,0,1,0,0)" fill="none" stroke="#00cccc" d="M90.60660171779821,50.60660171779821L149.3933982822018,109.39339828220179" stroke-width="5"></path><text transform="matrix(1,0,0,1,0,0)" style="text-anchor: middle; font: normal normal normal 10px/normal 18px Fontin-Sans, Arial;" x="127.07106781186548" y="72.92893218813452" text-anchor="middle" font="18px Fontin-Sans, Arial" stroke="none" fill="#00cccc"><tspan dy="3.634615384615385">1</tspan></text><path transform="matrix(1,0,0,1,0,0)" fill="none" stroke="#00cccc" d="M549.3933982822018,50.60660171779821L490.6066017177982,109.39339828220179" stroke-width="5"></path><text transform="matrix(1,0,0,1,0,0)" style="text-anchor: middle; font: normal normal normal 10px/normal 18px Fontin-Sans, Arial;" x="527.0710678118654" y="87.07106781186548" text-anchor="middle" font="18px Fontin-Sans, Arial" stroke="none" fill="#00cccc"><tspan dy="3.634615384615385">1</tspan></text><path transform="matrix(1,0,0,1,0,0)" fill="none" stroke="#00cccc" d="M549.3933982822018,429.3933982822018L490.6066017177982,370.6066017177982" stroke-width="5"></path><text transform="matrix(1,0,0,1,0,0)" style="text-anchor: middle; font: normal normal normal 10px/normal 18px Fontin-Sans, Arial;" x="512.9289321881346" y="407.0710678118655" text-anchor="middle" font="18px Fontin-Sans, Arial" stroke="none" fill="#00cccc"><tspan dy="3.634615384615385">1</tspan></text><path transform="matrix(1,0,0,1,0,0)" fill="none" stroke="#00cccc" d="M90.60660171779821,429.3933982822018L149.3933982822018,370.6066017177982" stroke-width="5"></path><text transform="matrix(1,0,0,1,0,0)" style="text-anchor: middle; font: normal normal normal 10px/normal 18px Fontin-Sans, Arial;" x="112.92893218813452" y="392.9289321881345" text-anchor="middle" font="18px Fontin-Sans, Arial" stroke="none" fill="#00cccc"><tspan dy="3.634615384615385">1</tspan></text><path transform="matrix(1,0,0,1,0,0)" fill="none" stroke="#00cccc" d="M172.48075441506765,231.67949705662156L207.51924558493235,208.32050294337844" stroke-width="5"></path><text transform="matrix(1,0,0,1,0,0)" style="text-anchor: middle; font: normal normal normal 10px/normal 18px Fontin-Sans, Arial;" x="184.4529980377477" y="211.67949705662156" text-anchor="middle" font="18px Fontin-Sans, Arial" stroke="none" fill="#00cccc"><tspan dy="3.634615384615385">1</tspan></text><path transform="matrix(1,0,0,1,0,0)" fill="none" stroke="#00cccc" d="M172.48075441506765,248.32050294337844L207.51924558493235,271.6794970566216" stroke-width="5"></path><text transform="matrix(1,0,0,1,0,0)" style="text-anchor: middle; font: normal normal normal 10px/normal 18px Fontin-Sans, Arial;" x="195.5470019622523" y="251.67949705662156" text-anchor="middle" font="18px Fontin-Sans, Arial" stroke="none" fill="#00cccc"><tspan dy="3.634615384615385">1</tspan></text><path transform="matrix(1,0,0,1,0,0)" fill="none" stroke="#00cccc" d="M467.5192455849323,248.32050294337844L432.4807544150677,271.6794970566216" stroke-width="5"></path><text transform="matrix(1,0,0,1,0,0)" style="text-anchor: middle; font: normal normal normal 10px/normal 18px Fontin-Sans, Arial;" x="455.5470019622523" y="268.3205029433784" text-anchor="middle" font="18px Fontin-Sans, Arial" stroke="none" fill="#00cccc"><tspan dy="3.634615384615385">1</tspan></text><path transform="matrix(1,0,0,1,0,0)" fill="none" stroke="#00cccc" d="M435,120L465,120" stroke-width="5"></path><text transform="matrix(1,0,0,1,0,0)" style="text-anchor: middle; font: normal normal normal 10px/normal 18px Fontin-Sans, Arial;" x="450" y="110" text-anchor="middle" font="18px Fontin-Sans, Arial" stroke="none" fill="#00cccc"><tspan dy="3.634615384615385">1</tspan></text><path transform="matrix(1,0,0,1,0,0)" fill="none" stroke="#00cccc" d="M420,135L420,185" stroke-width="5"></path><text transform="matrix(1,0,0,1,0,0)" style="text-anchor: middle; font: normal normal normal 10px/normal 18px Fontin-Sans, Arial;" x="430" y="160" text-anchor="middle" font="18px Fontin-Sans, Arial" stroke="none" fill="#00cccc"><tspan dy="3.634615384615385">1</tspan></text><path transform="matrix(1,0,0,1,0,0)" fill="none" stroke="#00cccc" d="M345,120L405,120" stroke-width="5"></path><text transform="matrix(1,0,0,1,0,0)" style="text-anchor: middle; font: normal normal normal 10px/normal 18px Fontin-Sans, Arial;" x="375" y="110" text-anchor="middle" font="18px Fontin-Sans, Arial" stroke="none" fill="#00cccc"><tspan dy="3.634615384615385">1</tspan></text><path transform="matrix(1,0,0,1,0,0)" fill="none" stroke="#00cccc" d="M341.2111397802549,129.9654575824488L408.7888602197451,190.0345424175512" stroke-width="5"></path><text transform="matrix(1,0,0,1,0,0)" style="text-anchor: middle; font: normal normal normal 10px/normal 18px Fontin-Sans, Arial;" x="381.6436383882992" y="152.5259068131634" text-anchor="middle" font="18px Fontin-Sans, Arial" stroke="none" fill="#00cccc"><tspan dy="3.634615384615385">1</tspan></text><path transform="matrix(1,0,0,1,0,0)" fill="none" stroke="#00cccc" d="M467.5192455849323,231.67949705662156L432.4807544150677,208.32050294337844" stroke-width="5"></path><text transform="matrix(1,0,0,1,0,0)" style="text-anchor: middle; font: normal normal normal 10px/normal 18px Fontin-Sans, Arial;" x="444.4529980377477" y="228.32050294337844" text-anchor="middle" font="18px Fontin-Sans, Arial" stroke="none" fill="#00cccc"><tspan dy="3.634615384615385">1</tspan></text><circle transform="matrix(1,0,0,1,0,0)" cx="280" cy="240" r="15" fill="#f00" stroke="#000"></circle><circle transform="matrix(1,0,0,1,0,0)" cx="360" cy="240" r="15" fill="#f00" stroke="#000"></circle><circle transform="matrix(1,0,0,1,0,0)" cx="220" cy="200" r="15" fill="#fa0" stroke="#000" fill-opacity="0.3" cursor="hand"></circle><circle transform="matrix(1,0,0,1,0,0)" cx="220" cy="280" r="15" fill="#fa0" stroke="#000" fill-opacity="0.3" cursor="hand"></circle><circle transform="matrix(1,0,0,1,0,0)" cx="420" cy="280" r="15" fill="#f00" stroke="#000" fill-opacity="0.3" cursor="hand"></circle><circle transform="matrix(1,0,0,1,0,0)" cx="420" cy="200" r="15" fill="#fa0" stroke="#000" fill-opacity="0.3" cursor="hand"></circle><circle transform="matrix(1,0,0,1,0,0)" cx="160" cy="120" r="15" fill="#fa0" stroke="#000" fill-opacity="0.3" cursor="hand"></circle><circle transform="matrix(1,0,0,1,0,0)" cx="160" cy="240" r="15" fill="#fa0" stroke="#000" fill-opacity="0.3" cursor="hand"></circle><circle transform="matrix(1,0,0,1,0,0)" cx="160" cy="360" r="15" fill="#fa0" stroke="#000" fill-opacity="0.3" cursor="hand"></circle><circle transform="matrix(1,0,0,1,0,0)" cx="480" cy="360" r="15" fill="#fa0" stroke="#000" fill-opacity="0.3" cursor="hand"></circle><circle transform="matrix(1,0,0,1,0,0)" cx="480" cy="240" r="15" fill="#fa0" stroke="#000" fill-opacity="0.3" cursor="hand"></circle><circle transform="matrix(1,0,0,1,0,0)" cx="480" cy="120" r="15" fill="#fa0" stroke="#000" fill-opacity="0.3" cursor="hand"></circle><circle transform="matrix(1,0,0,1,0,0)" cx="80" cy="440" r="15" fill="#fa0" stroke="#000" fill-opacity="0.3" cursor="hand"></circle><circle transform="matrix(1,0,0,1,0,0)" cx="560" cy="440" r="15" fill="#fa0" stroke="#000" fill-opacity="0.3" cursor="hand"></circle><circle transform="matrix(1,0,0,1,0,0)" cx="560" cy="40" r="15" fill="#fa0" stroke="#000" fill-opacity="0.3" cursor="hand"></circle><circle transform="matrix(1,0,0,1,0,0)" cx="80" cy="40" r="15" fill="#fa0" stroke="#000" fill-opacity="0.3" cursor="hand"></circle><circle transform="matrix(1,0,0,1,0,0)" cx="420" cy="120" r="15" fill="#fa0" stroke="#000" fill-opacity="0.3" cursor="hand"></circle><circle transform="matrix(1,0,0,1,0,0)" cx="330" cy="120" r="15" fill="#fa0" stroke="#000" fill-opacity="0.3" cursor="hand"></circle><text transform="matrix(1,0,0,1,0,0)" style="text-anchor: middle; font: normal normal normal 10px/normal 18px Fontin-Sans, Arial;" x="280" y="240" text-anchor="middle" font="18px Fontin-Sans, Arial" stroke="none" fill="#000"><tspan dy="3.634615384615385">s</tspan></text><text transform="matrix(1,0,0,1,0,0)" style="text-anchor: middle; font: normal normal normal 10px/normal 18px Fontin-Sans, Arial;" x="360" y="240" text-anchor="middle" font="18px Fontin-Sans, Arial" stroke="none" fill="#000"><tspan dy="3.634615384615385">t</tspan></text></svg>