<svg style="overflow: hidden; position: relative;" xmlns="http://www.w3.org/2000/svg" xmlns:xlink="http://www.w3.org/1999/xlink" width="640" version="1.1" height="480"><path transform="matrix(1,0,0,1,0,0)" fill="none" stroke="rgb(204,0,0)" d="M190,175L190,105" stroke-width="5" arrow-end="block-midium-midium"></path><text transform="matrix(1,0,0,1,0,0)" style="text-anchor: middle; font: normal normal normal 10px/normal 18px Fontin-Sans, Arial;" x="180" y="140" text-anchor="middle" font="18px Fontin-Sans, Arial" stroke="none" fill="rgb(204,0,0)"><tspan dy="3.634615384615385">0</tspan></text><path transform="matrix(1,0,0,1,0,0)" fill="none" stroke="rgb(204,0,0)" d="M190,275L190,205" stroke-width="5" arrow-end="block-midium-midium"></path><text transform="matrix(1,0,0,1,0,0)" style="text-anchor: middle; font: normal normal normal 10px/normal 18px Fontin-Sans, Arial;" x="180" y="240" text-anchor="middle" font="18px Fontin-Sans, Arial" stroke="none" fill="rgb(204,0,0)"><tspan dy="3.634615384615385">0</tspan></text><path transform="matrix(1,0,0,1,0,0)" fill="none" stroke="rgb(0,204,0)" d="M190,375L190,305" stroke-width="5" arrow-end="block-midium-midium"></path><text transform="matrix(1,0,0,1,0,0)" style="text-anchor: middle; font: normal normal normal 10px/normal 18px Fontin-Sans, Arial;" x="180" y="340" text-anchor="middle" font="18px Fontin-Sans, Arial" stroke="none" fill="rgb(0,204,0)"><tspan dy="3.634615384615385">1</tspan></text><path transform="matrix(1,0,0,1,0,0)" fill="none" stroke="rgb(204,0,0)" d="M290,175L290,105" stroke-width="5" arrow-end="block-midium-midium"></path><text transform="matrix(1,0,0,1,0,0)" style="text-anchor: middle; font: normal normal normal 10px/normal 18px Fontin-Sans, Arial;" x="280" y="140" text-anchor="middle" font="18px Fontin-Sans, Arial" stroke="none" fill="rgb(204,0,0)"><tspan dy="3.634615384615385">0</tspan></text><path transform="matrix(1,0,0,1,0,0)" fill="none" stroke="rgb(0,204,0)" d="M290,275L290,205" stroke-width="5" arrow-end="block-midium-midium"></path><text transform="matrix(1,0,0,1,0,0)" style="text-anchor: middle; font: normal normal normal 10px/normal 18px Fontin-Sans, Arial;" x="280" y="240" text-anchor="middle" font="18px Fontin-Sans, Arial" stroke="none" fill="rgb(0,204,0)"><tspan dy="3.634615384615385">1</tspan></text><path transform="matrix(1,0,0,1,0,0)" fill="none" stroke="rgb(0,204,0)" d="M290,375L290,305" stroke-width="5" arrow-end="block-midium-midium"></path><text transform="matrix(1,0,0,1,0,0)" style="text-anchor: middle; font: normal normal normal 10px/normal 18px Fontin-Sans, Arial;" x="280" y="340" text-anchor="middle" font="18px Fontin-Sans, Arial" stroke="none" fill="rgb(0,204,0)"><tspan dy="3.634615384615385">1</tspan></text><path transform="matrix(1,0,0,1,0,0)" fill="none" stroke="rgb(0,204,0)" d="M390,175L390,105" stroke-width="5" arrow-end="block-midium-midium"></path><text transform="matrix(1,0,0,1,0,0)" style="text-anchor: middle; font: normal normal normal 10px/normal 18px Fontin-Sans, Arial;" x="380" y="140" text-anchor="middle" font="18px Fontin-Sans, Arial" stroke="none" fill="rgb(0,204,0)"><tspan dy="3.634615384615385">1</tspan></text><path transform="matrix(1,0,0,1,0,0)" fill="none" stroke="rgb(0,204,0)" d="M390,275L390,205" stroke-width="5" arrow-end="block-midium-midium"></path><text transform="matrix(1,0,0,1,0,0)" style="text-anchor: middle; font: normal normal normal 10px/normal 18px Fontin-Sans, Arial;" x="380" y="240" text-anchor="middle" font="18px Fontin-Sans, Arial" stroke="none" fill="rgb(0,204,0)"><tspan dy="3.634615384615385">1</tspan></text><path transform="matrix(1,0,0,1,0,0)" fill="none" stroke="rgb(204,0,0)" d="M390,375L390,305" stroke-width="5" arrow-end="block-midium-midium"></path><text transform="matrix(1,0,0,1,0,0)" style="text-anchor: middle; font: normal normal normal 10px/normal 18px Fontin-Sans, Arial;" x="380" y="340" text-anchor="middle" font="18px Fontin-Sans, Arial" stroke="none" fill="rgb(204,0,0)"><tspan dy="3.634615384615385">0</tspan></text><path transform="matrix(1,0,0,1,0,0)" fill="none" stroke="rgb(0,204,0)" d="M490,175L490,105" stroke-width="5" arrow-end="block-midium-midium"></path><text transform="matrix(1,0,0,1,0,0)" style="text-anchor: middle; font: normal normal normal 10px/normal 18px Fontin-Sans, Arial;" x="480" y="140" text-anchor="middle" font="18px Fontin-Sans, Arial" stroke="none" fill="rgb(0,204,0)"><tspan dy="3.634615384615385">1</tspan></text><path transform="matrix(1,0,0,1,0,0)" fill="none" stroke="rgb(204,0,0)" d="M490,275L490,205" stroke-width="5" arrow-end="block-midium-midium"></path><text transform="matrix(1,0,0,1,0,0)" style="text-anchor: middle; font: normal normal normal 10px/normal 18px Fontin-Sans, Arial;" x="480" y="240" text-anchor="middle" font="18px Fontin-Sans, Arial" stroke="none" fill="rgb(204,0,0)"><tspan dy="3.634615384615385">0</tspan></text><path transform="matrix(1,0,0,1,0,0)" fill="none" stroke="rgb(204,0,0)" d="M490,375L490,305" stroke-width="5" arrow-end="block-midium-midium"></path><text transform="matrix(1,0,0,1,0,0)" style="text-anchor: middle; font: normal normal normal 10px/normal 18px Fontin-Sans, Arial;" x="480" y="340" text-anchor="middle" font="18px Fontin-Sans, Arial" stroke="none" fill="rgb(204,0,0)"><tspan dy="3.634615384615385">0</tspan></text><path transform="matrix(1,0,0,1,0,0)" fill="none" stroke="rgb(204,0,0)" d="M275,90L205,90" stroke-width="5" arrow-end="block-midium-midium"></path><text transform="matrix(1,0,0,1,0,0)" style="text-anchor: middle; font: normal normal normal 10px/normal 18px Fontin-Sans, Arial;" x="240" y="100" text-anchor="middle" font="18px Fontin-Sans, Arial" stroke="none" fill="rgb(204,0,0)"><tspan dy="3.634615384615385">0</tspan></text><path transform="matrix(1,0,0,1,0,0)" fill="none" stroke="rgb(204,0,0)" d="M375,90L305,90" stroke-width="5" arrow-end="block-midium-midium"></path><text transform="matrix(1,0,0,1,0,0)" style="text-anchor: middle; font: normal normal normal 10px/normal 18px Fontin-Sans, Arial;" x="340" y="100" text-anchor="middle" font="18px Fontin-Sans, Arial" stroke="none" fill="rgb(204,0,0)"><tspan dy="3.634615384615385">0</tspan></text><path transform="matrix(1,0,0,1,0,0)" fill="none" stroke="rgb(0,204,0)" d="M475,90L405,90" stroke-width="5" arrow-end="block-midium-midium"></path><text transform="matrix(1,0,0,1,0,0)" style="text-anchor: middle; font: normal normal normal 10px/normal 18px Fontin-Sans, Arial;" x="440" y="100" text-anchor="middle" font="18px Fontin-Sans, Arial" stroke="none" fill="rgb(0,204,0)"><tspan dy="3.634615384615385">1</tspan></text><path transform="matrix(1,0,0,1,0,0)" fill="none" stroke="rgb(204,0,0)" d="M275,190L205,190" stroke-width="5" arrow-end="block-midium-midium"></path><text transform="matrix(1,0,0,1,0,0)" style="text-anchor: middle; font: normal normal normal 10px/normal 18px Fontin-Sans, Arial;" x="240" y="200" text-anchor="middle" font="18px Fontin-Sans, Arial" stroke="none" fill="rgb(204,0,0)"><tspan dy="3.634615384615385">0</tspan></text><path transform="matrix(1,0,0,1,0,0)" fill="none" stroke="rgb(0,204,0)" d="M375,190L305,190" stroke-width="5" arrow-end="block-midium-midium"></path><text transform="matrix(1,0,0,1,0,0)" style="text-anchor: middle; font: normal normal normal 10px/normal 18px Fontin-Sans, Arial;" x="340" y="200" text-anchor="middle" font="18px Fontin-Sans, Arial" stroke="none" fill="rgb(0,204,0)"><tspan dy="3.634615384615385">1</tspan></text><path transform="matrix(1,0,0,1,0,0)" fill="none" stroke="rgb(0,204,0)" d="M475,190L405,190" stroke-width="5" arrow-end="block-midium-midium"></path><text transform="matrix(1,0,0,1,0,0)" style="text-anchor: middle; font: normal normal normal 10px/normal 18px Fontin-Sans, Arial;" x="440" y="200" text-anchor="middle" font="18px Fontin-Sans, Arial" stroke="none" fill="rgb(0,204,0)"><tspan dy="3.634615384615385">1</tspan></text><path transform="matrix(1,0,0,1,0,0)" fill="none" stroke="rgb(0,204,0)" d="M275,290L205,290" stroke-width="5" arrow-end="block-midium-midium"></path><text transform="matrix(1,0,0,1,0,0)" style="text-anchor: middle; font: normal normal normal 10px/normal 18px Fontin-Sans, Arial;" x="240" y="300" text-anchor="middle" font="18px Fontin-Sans, Arial" stroke="none" fill="rgb(0,204,0)"><tspan dy="3.634615384615385">1</tspan></text><path transform="matrix(1,0,0,1,0,0)" fill="none" stroke="rgb(0,204,0)" d="M375,290L305,290" stroke-width="5" arrow-end="block-midium-midium"></path><text transform="matrix(1,0,0,1,0,0)" style="text-anchor: middle; font: normal normal normal 10px/normal 18px Fontin-Sans, Arial;" x="340" y="300" text-anchor="middle" font="18px Fontin-Sans, Arial" stroke="none" fill="rgb(0,204,0)"><tspan dy="3.634615384615385">1</tspan></text><path transform="matrix(1,0,0,1,0,0)" fill="none" stroke="rgb(204,0,0)" d="M475,290L405,290" stroke-width="5" arrow-end="block-midium-midium"></path><text transform="matrix(1,0,0,1,0,0)" style="text-anchor: middle; font: normal normal normal 10px/normal 18px Fontin-Sans, Arial;" x="440" y="300" text-anchor="middle" font="18px Fontin-Sans, Arial" stroke="none" fill="rgb(204,0,0)"><tspan dy="3.634615384615385">0</tspan></text><path transform="matrix(1,0,0,1,0,0)" fill="none" stroke="rgb(0,204,0)" d="M275,390L205,390" stroke-width="5" arrow-end="block-midium-midium"></path><text transform="matrix(1,0,0,1,0,0)" style="text-anchor: middle; font: normal normal normal 10px/normal 18px Fontin-Sans, Arial;" x="240" y="400" text-anchor="middle" font="18px Fontin-Sans, Arial" stroke="none" fill="rgb(0,204,0)"><tspan dy="3.634615384615385">1</tspan></text><path transform="matrix(1,0,0,1,0,0)" fill="none" stroke="rgb(204,0,0)" d="M375,390L305,390" stroke-width="5" arrow-end="block-midium-midium"></path><text transform="matrix(1,0,0,1,0,0)" style="text-anchor: middle; font: normal normal normal 10px/normal 18px Fontin-Sans, Arial;" x="340" y="400" text-anchor="middle" font="18px Fontin-Sans, Arial" stroke="none" fill="rgb(204,0,0)"><tspan dy="3.634615384615385">0</tspan></text><path transform="matrix(1,0,0,1,0,0)" fill="none" stroke="rgb(204,0,0)" d="M475,390L405,390" stroke-width="5" arrow-end="block-midium-midium"></path><text transform="matrix(1,0,0,1,0,0)" style="text-anchor: middle; font: normal normal normal 10px/normal 18px Fontin-Sans, Arial;" x="440" y="400" text-anchor="middle" font="18px Fontin-Sans, Arial" stroke="none" fill="rgb(204,0,0)"><tspan dy="3.634615384615385">0</tspan></text><path transform="matrix(1,0,0,1,0,0)" fill="none" stroke="rgb(204,0,0)" d="M181.67949705662156,102.48075441506765L98.32050294337844,227.51924558493235" stroke-width="5" arrow-end="block-midium-midium"></path><text transform="matrix(1,0,0,1,0,0)" style="text-anchor: middle; font: normal normal normal 10px/normal 18px Fontin-Sans, Arial;" x="148.32050294337844" y="170.5470019622523" text-anchor="middle" font="18px Fontin-Sans, Arial" stroke="none" fill="rgb(204,0,0)"><tspan dy="3.634615384615385">0</tspan></text><path transform="matrix(1,0,0,1,0,0)" fill="none" stroke="rgb(204,0,0)" d="M176.58359213500125,196.70820393249937L103.41640786499875,233.29179606750063" stroke-width="5" arrow-end="block-midium-midium"></path><text transform="matrix(1,0,0,1,0,0)" style="text-anchor: middle; font: normal normal normal 10px/normal 18px Fontin-Sans, Arial;" x="144.47213595499957" y="223.94427190999915" text-anchor="middle" font="18px Fontin-Sans, Arial" stroke="none" fill="rgb(204,0,0)"><tspan dy="3.634615384615385">0</tspan></text><path transform="matrix(1,0,0,1,0,0)" fill="none" stroke="rgb(204,0,0)" d="M176.58359213500125,283.2917960675006L103.41640786499875,246.70820393249937" stroke-width="5" arrow-end="block-midium-midium"></path><text transform="matrix(1,0,0,1,0,0)" style="text-anchor: middle; font: normal normal normal 10px/normal 18px Fontin-Sans, Arial;" x="135.52786404500043" y="273.94427190999915" text-anchor="middle" font="18px Fontin-Sans, Arial" stroke="none" fill="rgb(204,0,0)"><tspan dy="3.634615384615385">0</tspan></text><path transform="matrix(1,0,0,1,0,0)" fill="none" stroke="rgb(204,0,0)" d="M181.67949705662156,377.5192455849323L98.32050294337844,252.48075441506765" stroke-width="5" arrow-end="block-midium-midium"></path><text transform="matrix(1,0,0,1,0,0)" style="text-anchor: middle; font: normal normal normal 10px/normal 18px Fontin-Sans, Arial;" x="131.67949705662156" y="320.5470019622523" text-anchor="middle" font="18px Fontin-Sans, Arial" stroke="none" fill="rgb(204,0,0)"><tspan dy="3.634615384615385">0</tspan></text><path transform="matrix(1,0,0,1,0,0)" fill="none" stroke="rgb(204,0,0)" d="M498.3205029433784,102.48075441506765L581.6794970566216,227.51924558493235" stroke-width="5" arrow-end="block-midium-midium"></path><text transform="matrix(1,0,0,1,0,0)" style="text-anchor: middle; font: normal normal normal 10px/normal 18px Fontin-Sans, Arial;" x="548.3205029433784" y="159.4529980377477" text-anchor="middle" font="18px Fontin-Sans, Arial" stroke="none" fill="rgb(204,0,0)"><tspan dy="3.634615384615385">0</tspan></text><path transform="matrix(1,0,0,1,0,0)" fill="none" stroke="rgb(204,0,0)" d="M503.41640786499875,196.70820393249937L576.5835921350013,233.29179606750063" stroke-width="5" arrow-end="block-midium-midium"></path><text transform="matrix(1,0,0,1,0,0)" style="text-anchor: middle; font: normal normal normal 10px/normal 18px Fontin-Sans, Arial;" x="544.4721359549995" y="206.05572809000085" text-anchor="middle" font="18px Fontin-Sans, Arial" stroke="none" fill="rgb(204,0,0)"><tspan dy="3.634615384615385">0</tspan></text><path transform="matrix(1,0,0,1,0,0)" fill="none" stroke="rgb(204,0,0)" d="M503.41640786499875,283.2917960675006L576.5835921350013,246.70820393249937" stroke-width="5" arrow-end="block-midium-midium"></path><text transform="matrix(1,0,0,1,0,0)" style="text-anchor: middle; font: normal normal normal 10px/normal 18px Fontin-Sans, Arial;" x="535.5278640450005" y="256.05572809000085" text-anchor="middle" font="18px Fontin-Sans, Arial" stroke="none" fill="rgb(204,0,0)"><tspan dy="3.634615384615385">0</tspan></text><path transform="matrix(1,0,0,1,0,0)" fill="none" stroke="rgb(204,0,0)" d="M498.3205029433784,377.5192455849323L581.6794970566216,252.48075441506765" stroke-width="5" arrow-end="block-midium-midium"></path><text transform="matrix(1,0,0,1,0,0)" style="text-anchor: middle; font: normal normal normal 10px/normal 18px Fontin-Sans, Arial;" x="531.6794970566216" y="309.4529980377477" text-anchor="middle" font="18px Fontin-Sans, Arial" stroke="none" fill="rgb(204,0,0)"><tspan dy="3.634615384615385">0</tspan></text><circle transform="matrix(1,0,0,1,0,0)" cx="190" cy="90" r="15" fill="rgb(255,152,0)" stroke="#000" fill-opacity="0.3" cursor="hand"></circle><circle transform="matrix(1,0,0,1,0,0)" cx="190" cy="190" r="15" fill="rgb(255,152,0)" stroke="#000" fill-opacity="0.3" cursor="hand"></circle><circle transform="matrix(1,0,0,1,0,0)" cx="190" cy="290" r="15" fill="rgb(255,152,0)" stroke="#000" fill-opacity="0.3" cursor="hand"></circle><circle transform="matrix(1,0,0,1,0,0)" cx="190" cy="390" r="15" fill="rgb(255,153,0)" stroke="#000" fill-opacity="0.3" cursor="hand"></circle><circle transform="matrix(1,0,0,1,0,0)" cx="290" cy="90" r="15" fill="rgb(255,153,0)" stroke="#000" fill-opacity="0.3" cursor="hand"></circle><circle transform="matrix(1,0,0,1,0,0)" cx="290" cy="190" r="15" fill="rgb(255,153,0)" stroke="#000" fill-opacity="0.3" cursor="hand"></circle><circle transform="matrix(1,0,0,1,0,0)" cx="290" cy="290" r="15" fill="rgb(255,170,0)" stroke="#000" fill-opacity="0.3" cursor="hand"></circle><circle transform="matrix(1,0,0,1,0,0)" cx="290" cy="390" r="15" fill="rgb(255,153,0)" stroke="#000" fill-opacity="0.3" cursor="hand"></circle><circle transform="matrix(1,0,0,1,0,0)" cx="390" cy="90" r="15" fill="rgb(255,154,0)" stroke="#000" fill-opacity="0.3" cursor="hand"></circle><circle transform="matrix(1,0,0,1,0,0)" cx="390" cy="190" r="15" fill="rgb(255,170,0)" stroke="#000" fill-opacity="0.3" cursor="hand"></circle><circle transform="matrix(1,0,0,1,0,0)" cx="390" cy="290" r="15" fill="rgb(255,154,0)" stroke="#000" fill-opacity="0.3" cursor="hand"></circle><circle transform="matrix(1,0,0,1,0,0)" cx="390" cy="390" r="15" fill="rgb(255,154,0)" stroke="#000" fill-opacity="0.3" cursor="hand"></circle><circle transform="matrix(1,0,0,1,0,0)" cx="490" cy="90" r="15" fill="rgb(255,155,0)" stroke="#000" fill-opacity="0.3" cursor="hand"></circle><circle transform="matrix(1,0,0,1,0,0)" cx="490" cy="190" r="15" fill="rgb(255,155,0)" stroke="#000" fill-opacity="0.3" cursor="hand"></circle><circle transform="matrix(1,0,0,1,0,0)" cx="490" cy="290" r="15" fill="rgb(255,155,0)" stroke="#000" fill-opacity="0.3" cursor="hand"></circle><circle transform="matrix(1,0,0,1,0,0)" cx="490" cy="390" r="15" fill="rgb(255,155,0)" stroke="#000" fill-opacity="0.3" cursor="hand"></circle><circle transform="matrix(1,0,0,1,0,0)" cx="90" cy="240" r="15" fill="#f00" stroke="#000"></circle><circle transform="matrix(1,0,0,1,0,0)" cx="590" cy="240" r="15" fill="#f00" stroke="#000"></circle><text transform="matrix(1,0,0,1,0,0)" style="text-anchor: middle; font: normal normal normal 10px/normal 18px Fontin-Sans, Arial;" x="90" y="240" text-anchor="middle" font="18px Fontin-Sans, Arial" stroke="none" fill="#000"><tspan dy="3.634615384615385">s</tspan></text><text transform="matrix(1,0,0,1,0,0)" style="text-anchor: middle; font: normal normal normal 10px/normal 18px Fontin-Sans, Arial;" x="590" y="240" text-anchor="middle" font="18px Fontin-Sans, Arial" stroke="none" fill="#000"><tspan dy="3.634615384615385">t</tspan></text></svg>