<svg style="overflow: hidden; position: relative;" xmlns="http://www.w3.org/2000/svg" xmlns:xlink="http://www.w3.org/1999/xlink" width="640" version="1.1" height="480"><path transform="matrix(1,0,0,1,0,0)" fill="none" stroke="#00cc51" d="M100.60660171779821,229.3933982822018L179.3933982822018,150.6066017177982" stroke-width="5" arrow-end="block-midium-midium"></path><text transform="matrix(1,0,0,1,0,0)" style="text-anchor: middle; font: normal normal normal 10px/normal 18px Fontin-Sans, Arial;" x="132.92893218813452" y="182.92893218813452" text-anchor="middle" font="18px Fontin-Sans, Arial" stroke="none" fill="#00cc51"><tspan dy="3.634615384615385">2</tspan></text><path transform="matrix(1,0,0,1,0,0)" fill="none" stroke="#a3cc00" d="M100.60660171779821,250.6066017177982L179.3933982822018,329.3933982822018" stroke-width="5" arrow-end="block-midium-midium"></path><text transform="matrix(1,0,0,1,0,0)" style="text-anchor: middle; font: normal normal normal 10px/normal 18px Fontin-Sans, Arial;" x="147.07106781186548" y="282.9289321881345" text-anchor="middle" font="18px Fontin-Sans, Arial" stroke="none" fill="#a3cc00"><tspan dy="3.634615384615385">1</tspan></text><path transform="matrix(1,0,0,1,0,0)" fill="none" stroke="#00cc51" d="M500.6066017177982,150.6066017177982L579.3933982822018,229.3933982822018" stroke-width="5" arrow-end="block-midium-midium"></path><text transform="matrix(1,0,0,1,0,0)" style="text-anchor: middle; font: normal normal normal 10px/normal 18px Fontin-Sans, Arial;" x="547.0710678118654" y="182.92893218813452" text-anchor="middle" font="18px Fontin-Sans, Arial" stroke="none" fill="#00cc51"><tspan dy="3.634615384615385">2</tspan></text><path transform="matrix(1,0,0,1,0,0)" fill="none" stroke="#a3cc00" d="M500.6066017177982,329.3933982822018L579.3933982822018,250.6066017177982" stroke-width="5" arrow-end="block-midium-midium"></path><text transform="matrix(1,0,0,1,0,0)" style="text-anchor: middle; font: normal normal normal 10px/normal 18px Fontin-Sans, Arial;" x="532.9289321881346" y="282.9289321881345" text-anchor="middle" font="18px Fontin-Sans, Arial" stroke="none" fill="#a3cc00"><tspan dy="3.634615384615385">1</tspan></text><path transform="matrix(1,0,0,1,0,0)" fill="none" stroke="#a3cc00" d="M205,140L275,140" stroke-width="5" arrow-end="block-midium-midium"></path><text transform="matrix(1,0,0,1,0,0)" style="text-anchor: middle; font: normal normal normal 10px/normal 18px Fontin-Sans, Arial;" x="240" y="130" text-anchor="middle" font="18px Fontin-Sans, Arial" stroke="none" fill="#a3cc00"><tspan dy="3.634615384615385">1</tspan></text><path transform="matrix(1,0,0,1,0,0)" fill="none" stroke="#00cc51" d="M305,140L375,140" stroke-width="5" arrow-end="block-midium-midium"></path><text transform="matrix(1,0,0,1,0,0)" style="text-anchor: middle; font: normal normal normal 10px/normal 18px Fontin-Sans, Arial;" x="340" y="130" text-anchor="middle" font="18px Fontin-Sans, Arial" stroke="none" fill="#00cc51"><tspan dy="3.634615384615385">2</tspan></text><path transform="matrix(1,0,0,1,0,0)" fill="none" stroke="#a3cc00" d="M405,140L475,140" stroke-width="5" arrow-end="block-midium-midium"></path><text transform="matrix(1,0,0,1,0,0)" style="text-anchor: middle; font: normal normal normal 10px/normal 18px Fontin-Sans, Arial;" x="440" y="130" text-anchor="middle" font="18px Fontin-Sans, Arial" stroke="none" fill="#a3cc00"><tspan dy="3.634615384615385">1</tspan></text><path transform="matrix(1,0,0,1,0,0)" fill="none" stroke="#00cc51" d="M205,340L275,340" stroke-width="5" arrow-end="block-midium-midium"></path><text transform="matrix(1,0,0,1,0,0)" style="text-anchor: middle; font: normal normal normal 10px/normal 18px Fontin-Sans, Arial;" x="240" y="330" text-anchor="middle" font="18px Fontin-Sans, Arial" stroke="none" fill="#00cc51"><tspan dy="3.634615384615385">2</tspan></text><path transform="matrix(1,0,0,1,0,0)" fill="none" stroke="#a3cc00" d="M305,340L375,340" stroke-width="5" arrow-end="block-midium-midium"></path><text transform="matrix(1,0,0,1,0,0)" style="text-anchor: middle; font: normal normal normal 10px/normal 18px Fontin-Sans, Arial;" x="340" y="330" text-anchor="middle" font="18px Fontin-Sans, Arial" stroke="none" fill="#a3cc00"><tspan dy="3.634615384615385">1</tspan></text><path transform="matrix(1,0,0,1,0,0)" fill="none" stroke="#00cc51" d="M405,340L475,340" stroke-width="5" arrow-end="block-midium-midium"></path><text transform="matrix(1,0,0,1,0,0)" style="text-anchor: middle; font: normal normal normal 10px/normal 18px Fontin-Sans, Arial;" x="440" y="330" text-anchor="middle" font="18px Fontin-Sans, Arial" stroke="none" fill="#00cc51"><tspan dy="3.634615384615385">2</tspan></text><path transform="matrix(1,0,0,1,0,0)" fill="none" stroke="#cc0000" d="M190,325L190,155" stroke-width="5" arrow-end="block-midium-midium"></path><text transform="matrix(1,0,0,1,0,0)" style="text-anchor: middle; font: normal normal normal 10px/normal 18px Fontin-Sans, Arial;" x="180" y="240" text-anchor="middle" font="18px Fontin-Sans, Arial" stroke="none" fill="#cc0000"><tspan dy="3.634615384615385">0</tspan></text><path transform="matrix(1,0,0,1,0,0)" fill="none" stroke="#cc0000" d="M290,325L290,155" stroke-width="5" arrow-end="block-midium-midium"></path><text transform="matrix(1,0,0,1,0,0)" style="text-anchor: middle; font: normal normal normal 10px/normal 18px Fontin-Sans, Arial;" x="280" y="240" text-anchor="middle" font="18px Fontin-Sans, Arial" stroke="none" fill="#cc0000"><tspan dy="3.634615384615385">0</tspan></text><path transform="matrix(1,0,0,1,0,0)" fill="none" stroke="#cc0000" d="M390,325L390,155" stroke-width="5" arrow-end="block-midium-midium"></path><text transform="matrix(1,0,0,1,0,0)" style="text-anchor: middle; font: normal normal normal 10px/normal 18px Fontin-Sans, Arial;" x="380" y="240" text-anchor="middle" font="18px Fontin-Sans, Arial" stroke="none" fill="#cc0000"><tspan dy="3.634615384615385">0</tspan></text><path transform="matrix(1,0,0,1,0,0)" fill="none" stroke="#cc0000" d="M490,325L490,155" stroke-width="5" arrow-end="block-midium-midium"></path><text transform="matrix(1,0,0,1,0,0)" style="text-anchor: middle; font: normal normal normal 10px/normal 18px Fontin-Sans, Arial;" x="480" y="240" text-anchor="middle" font="18px Fontin-Sans, Arial" stroke="none" fill="#cc0000"><tspan dy="3.634615384615385">0</tspan></text><circle transform="matrix(1,0,0,1,0,0)" cx="190" cy="140" r="15" fill="#fa0" stroke="#000" fill-opacity="0.3" cursor="hand"></circle><circle transform="matrix(1,0,0,1,0,0)" cx="290" cy="140" r="15" fill="#fa0" stroke="#000" fill-opacity="0.3" cursor="hand"></circle><circle transform="matrix(1,0,0,1,0,0)" cx="390" cy="140" r="15" fill="#fa0" stroke="#000" fill-opacity="0.3" cursor="hand"></circle><circle transform="matrix(1,0,0,1,0,0)" cx="490" cy="140" r="15" fill="#fa0" stroke="#000" fill-opacity="0.3" cursor="hand"></circle><circle transform="matrix(1,0,0,1,0,0)" cx="190" cy="340" r="15" fill="#fa0" stroke="#000" fill-opacity="0.3" cursor="hand"></circle><circle transform="matrix(1,0,0,1,0,0)" cx="290" cy="340" r="15" fill="#fa0" stroke="#000" fill-opacity="0.3" cursor="hand"></circle><circle transform="matrix(1,0,0,1,0,0)" cx="390" cy="340" r="15" fill="#fa0" stroke="#000" fill-opacity="0.3" cursor="hand"></circle><circle transform="matrix(1,0,0,1,0,0)" cx="490" cy="340" r="15" fill="#fa0" stroke="#000" fill-opacity="0.3" cursor="hand"></circle><circle transform="matrix(1,0,0,1,0,0)" cx="90" cy="240" r="15" fill="#f00" stroke="#000"></circle><circle transform="matrix(1,0,0,1,0,0)" cx="590" cy="240" r="15" fill="#f00" stroke="#000"></circle><text transform="matrix(1,0,0,1,0,0)" style="text-anchor: middle; font: normal normal normal 10px/normal 18px Fontin-Sans, Arial;" x="90" y="240" text-anchor="middle" font="18px Fontin-Sans, Arial" stroke="none" fill="#000"><tspan dy="3.634615384615385">s</tspan></text><text transform="matrix(1,0,0,1,0,0)" style="text-anchor: middle; font: normal normal normal 10px/normal 18px Fontin-Sans, Arial;" x="590" y="240" text-anchor="middle" font="18px Fontin-Sans, Arial" stroke="none" fill="#000"><tspan dy="3.634615384615385">t</tspan></text></svg>