<svg style="overflow: hidden; position: relative;" xmlns="http://www.w3.org/2000/svg" xmlns:xlink="http://www.w3.org/1999/xlink" width="640" version="1.1" height="480"><path transform="matrix(1,0,0,1,0,0)" fill="none" stroke="#cc0000" d="M83.0875902392458,232.67094946602236L306.9124097607542,107.32905053397765" stroke-width="5" arrow-end="block-midium-midium"></path><text transform="matrix(1,0,0,1,0,0)" style="text-anchor: middle; font: normal normal normal 10px/normal 18px Fontin-Sans, Arial;" x="190.11396631068158" y="161.2749398405028" text-anchor="middle" font="18px Fontin-Sans, Arial" stroke="none" fill="#cc0000"><tspan dy="3.634615384615385">0</tspan></text><path transform="matrix(1,0,0,1,0,0)" fill="none" stroke="#00cc00" d="M83.0875902392458,247.32905053397764L306.9124097607542,372.67094946602236" stroke-width="5" arrow-end="block-midium-midium"></path><text transform="matrix(1,0,0,1,0,0)" style="text-anchor: middle; font: normal normal normal 10px/normal 18px Fontin-Sans, Arial;" x="199.88603368931842" y="301.2749398405028" text-anchor="middle" font="18px Fontin-Sans, Arial" stroke="none" fill="#00cc00"><tspan dy="3.634615384615385">1</tspan></text><path transform="matrix(1,0,0,1,0,0)" fill="none" stroke="#00cc00" d="M320,115L320,225" stroke-width="5" arrow-end="block-midium-midium"></path><text transform="matrix(1,0,0,1,0,0)" style="text-anchor: middle; font: normal normal normal 10px/normal 18px Fontin-Sans, Arial;" x="330" y="170" text-anchor="middle" font="18px Fontin-Sans, Arial" stroke="none" fill="#00cc00"><tspan dy="3.634615384615385">1</tspan></text><path transform="matrix(1,0,0,1,0,0)" fill="none" stroke="#00cc00" d="M320,255L320,365" stroke-width="5" arrow-end="block-midium-midium"></path><text transform="matrix(1,0,0,1,0,0)" style="text-anchor: middle; font: normal normal normal 10px/normal 18px Fontin-Sans, Arial;" x="330" y="310" text-anchor="middle" font="18px Fontin-Sans, Arial" stroke="none" fill="#00cc00"><tspan dy="3.634615384615385">1</tspan></text><path transform="matrix(1,0,0,1,0,0)" fill="none" stroke="#00cc00" d="M333.0875902392458,107.32905053397765L556.9124097607541,232.67094946602236" stroke-width="5" arrow-end="block-midium-midium"></path><text transform="matrix(1,0,0,1,0,0)" style="text-anchor: middle; font: normal normal normal 10px/normal 18px Fontin-Sans, Arial;" x="449.8860336893184" y="161.2749398405028" text-anchor="middle" font="18px Fontin-Sans, Arial" stroke="none" fill="#00cc00"><tspan dy="3.634615384615385">1</tspan></text><path transform="matrix(1,0,0,1,0,0)" fill="none" stroke="#cc0000" d="M333.0875902392458,372.67094946602236L556.9124097607541,247.32905053397764" stroke-width="5" arrow-end="block-midium-midium"></path><text transform="matrix(1,0,0,1,0,0)" style="text-anchor: middle; font: normal normal normal 10px/normal 18px Fontin-Sans, Arial;" x="440.1139663106816" y="301.2749398405028" text-anchor="middle" font="18px Fontin-Sans, Arial" stroke="none" fill="#cc0000"><tspan dy="3.634615384615385">0</tspan></text><circle transform="matrix(1,0,0,1,0,0)" cx="70" cy="240" r="15" fill="#f00" stroke="#000"></circle><circle transform="matrix(1,0,0,1,0,0)" cx="320" cy="100" r="15" fill="#f00" stroke="#000" fill-opacity="0.3" cursor="hand"></circle><circle transform="matrix(1,0,0,1,0,0)" cx="320" cy="240" r="15" fill="#ff0" stroke="#000" fill-opacity="0.3" cursor="hand"></circle><circle transform="matrix(1,0,0,1,0,0)" cx="320" cy="380" r="15" fill="#f00" stroke="#000" fill-opacity="0.3" cursor="hand"></circle><circle transform="matrix(1,0,0,1,0,0)" cx="570" cy="240" r="15" fill="#f00" stroke="#000"></circle><text transform="matrix(1,0,0,1,0,0)" style="text-anchor: middle; font: normal normal normal 10px/normal 18px Fontin-Sans, Arial;" x="70" y="240" text-anchor="middle" font="18px Fontin-Sans, Arial" stroke="none" fill="#000"><tspan dy="3.634615384615385">s</tspan></text><text transform="matrix(1,0,0,1,0,0)" style="text-anchor: middle; font: normal normal normal 10px/normal 18px Fontin-Sans, Arial;" x="570" y="240" text-anchor="middle" font="18px Fontin-Sans, Arial" stroke="none" fill="#000"><tspan dy="3.634615384615385">t</tspan></text></svg>