<svg style="overflow: hidden; position: relative;" xmlns="http://www.w3.org/2000/svg" xmlns:xlink="http://www.w3.org/1999/xlink" width="640" version="1.1" height="480"><path transform="matrix(1,0,0,1,0,0)" fill="none" stroke="#6600cc" d="M85,240L305,240" stroke-width="5" arrow-end="block-midium-midium"></path><text transform="matrix(1,0,0,1,0,0)" style="text-anchor: middle; font: normal normal normal 10px/normal 18px Fontin-Sans, Arial;" x="195" y="230" text-anchor="middle" font="18px Fontin-Sans, Arial" stroke="none" fill="#6600cc"><tspan dy="3.634615384615385">3</tspan></text><path transform="matrix(1,0,0,1,0,0)" fill="none" stroke="#66cc00" d="M335,240L555,240" stroke-width="5" arrow-end="block-midium-midium"></path><text transform="matrix(1,0,0,1,0,0)" style="text-anchor: middle; font: normal normal normal 10px/normal 18px Fontin-Sans, Arial;" x="445" y="230" text-anchor="middle" font="18px Fontin-Sans, Arial" stroke="none" fill="#66cc00"><tspan dy="3.634615384615385">1</tspan></text><circle transform="matrix(1,0,0,1,0,0)" cx="70" cy="240" r="15" fill="#f00" stroke="#000"></circle><circle transform="matrix(1,0,0,1,0,0)" cx="320" cy="240" r="15" fill="#ff0" stroke="#000" fill-opacity="0.3" cursor="hand"></circle><circle transform="matrix(1,0,0,1,0,0)" cx="570" cy="240" r="15" fill="#f00" stroke="#000"></circle><text transform="matrix(1,0,0,1,0,0)" style="text-anchor: middle; font: normal normal normal 10px/normal 18px Fontin-Sans, Arial;" x="70" y="240" text-anchor="middle" font="18px Fontin-Sans, Arial" stroke="none" fill="#000"><tspan dy="3.634615384615385">s</tspan></text><text transform="matrix(1,0,0,1,0,0)" style="text-anchor: middle; font: normal normal normal 10px/normal 18px Fontin-Sans, Arial;" x="570" y="240" text-anchor="middle" font="18px Fontin-Sans, Arial" stroke="none" fill="#000"><tspan dy="3.634615384615385">t</tspan></text></svg>